<svg xmlns="http://www.w3.org/2000/svg" id="a" data-name="Layer 1" viewBox="0 0 1290.06 280"><defs><style>.b{fill:#004aad;stroke-width:0}</style></defs><path d="m122.53 44.18 42.53 16.81 43.76-13.29-.69 43.65c-.33 8.14-19.92 13.95-43.75 12.98-23.83-.97-42.87-8.37-42.54-16.5l.69-43.65ZM167.55 0l79.37 31.39-12.08 3.67-.94 23.08.33.12c1.75.83 2.94 2.65 2.85 4.71a4.99 4.99 0 0 1-1.6 3.46l-.09.06 2.12 16.42-12.45-.51 3.45-16.2-.08-.07c-.86-.94-1.36-2.2-1.31-3.58a4.998 4.998 0 0 1 3.23-4.46l.34-.09.9-21.96-66.33 20.15L85.89 24.8 167.55 0Z" style="fill-rule:evenodd;fill:#004aad;stroke-width:0"/><path d="M147.18 148.27c-9.01-13.31-24.26-22.08-41.54-22.08-25.71 0-46.92 19.42-49.77 44.35 27.93-23.29 68.46-26.29 91.31-22.27Z" class="b"/><path d="M33.38 71.83C14.95 71.83 0 86.78 0 105.21v141.41C0 265.06 14.95 280 33.38 280h141.41c18.44 0 33.38-14.95 33.38-33.38V71.83H33.38Zm57.88 150.32c1.31 2.76 3.68 3.87 6.29 5.18 32.24 16.32 77.12-9.68 81.05-45.6-2.95 38.58-35.2 68.94-74.51 68.94-32.63 0-60.42-20.92-70.58-50.11-2.67-7.74-4.12-16.03-4.17-24.64 0-41.3 33.51-74.75 74.75-74.75s73.59 32.34 74.75 72.67c-8.76-.58-16.41-.68-23.19-.34-20.96.97-49.87 8.86-62.07 28.18-5.13 8.13-4.41 16.17-2.32 20.48ZM323.44 250.12c-14.42 0-27.19-3.16-38.33-9.47-11.14-6.32-19.84-15.06-26.09-26.19-6.26-11.15-9.38-24-9.38-38.54s3.12-27.38 9.38-38.52c6.25-11.15 14.91-19.88 25.98-26.19 11.08-6.32 23.82-9.49 38.22-9.49 12.1 0 23.17 2.32 33.22 6.95 10.05 4.62 18.51 11.14 25.37 19.57 6.86 8.42 11.65 18.33 14.38 29.75h-33.44c-2.71-7.88-7.53-14.09-14.46-18.63-6.94-4.56-14.95-6.84-24.06-6.84-8.02 0-15.19 1.84-21.51 5.51-6.31 3.66-11.24 8.75-14.78 15.27-3.53 6.52-5.29 14.07-5.29 22.64s1.76 16.09 5.29 22.62c3.54 6.52 8.43 11.62 14.67 15.29 6.25 3.67 13.39 5.51 21.41 5.51 9.39 0 17.61-2.4 24.67-7.22 7.07-4.83 12.1-11.32 15.08-19.48h33.44c-2.3 11.55-6.92 21.64-13.85 30.28-6.94 8.63-15.53 15.32-25.79 20.07s-21.64 7.14-34.14 7.14ZM432.29 247.26l56.67-142.68h31.78l56.67 142.68h-34.64l-9.57-24.67h-56.69l-9.57 24.67H432.3Zm52.58-50.15h40.15l-20.18-52.18-19.97 52.18ZM621.46 247.26V104.58h56.45c15.08 0 28.25 3 39.53 8.98 11.28 5.97 20.04 14.33 26.3 25.07 6.25 10.73 9.38 23.16 9.38 37.29s-3.13 26.74-9.38 37.42c-6.26 10.66-15.02 18.98-26.3 24.97-11.28 5.97-24.46 8.96-39.53 8.96h-56.45Zm32.4-29.75h23.44c8.43 0 15.83-1.73 22.21-5.19 6.4-3.47 11.39-8.33 14.99-14.59 3.6-6.25 5.4-13.52 5.4-21.81s-1.8-15.73-5.4-21.92c-3.6-6.18-8.63-11-15.1-14.46-6.45-3.47-13.95-5.21-22.51-5.21h-23.04v83.18ZM803.9 247.26V104.58h93.77v27.32h-61.58v29.54h56.07v27.13h-56.07v31.17h63.8v27.53H803.9ZM952.5 247.26V104.58h27.51l50.76 73.99 50.55-73.99h27.32v142.68h-32.21v-85.82l-34.64 50.57h-22.42l-34.66-50.76v86.02h-32.19ZM1205.25 247.26v-49.93l-52.58-92.75h36.89l17.72 33.01 14.27 25.9 14.06-25.9 17.53-33.01h36.91l-52.39 92.33v50.36h-32.42Z" class="b"/></svg>