<svg xmlns="http://www.w3.org/2000/svg" id="a" version="1.1" viewBox="0 0 1120.9 249.4"><defs><style>.cls-1{fill:#004aad;stroke-width:0}</style></defs><path d="m552.9 37.7 35.9 13.5 36.5-11.8v31.1c-.1 6.8-16.5 12-36.5 11.5s-36.1-6.5-35.9-13.3V37.6ZM590 0l67 25.2-10.1 3.2-.5 19.4h.3c1.5.8 2.5 2.3 2.5 4 0 1.1-.5 2.2-1.3 2.9l2 13.8-10.4-.3 2.7-13.6c-.7-.8-1.2-1.9-1.1-3 0-1.7 1.1-3.2 2.6-3.8h.3l.4-18.5-55.3 17.8-67-25.2L590 0Z" style="fill-rule:evenodd;fill:#004aad;stroke-width:0"/><path d="M111.1 27.2C49.7 27.2 0 77 0 138.3s49.7 111.1 111.1 111.1 111.1-49.7 111.1-111.1S172.4 27.2 111.1 27.2ZM98.2 184.5c1.3 2.7 3.7 3.9 6.3 5.2 32.2 16.3 77.1-9.7 81.1-45.6-3 38.6-35.2 68.9-74.5 68.9s-60.4-20.9-70.6-50.1c-2.7-7.7-4.1-16-4.2-24.6 0-41.3 33.5-74.8 74.8-74.8s73.6 32.3 74.8 72.7c-8.8-.6-16.4-.7-23.2-.3-21 1-49.9 8.9-62.1 28.2-5.1 8.1-4.4 16.2-2.3 20.5Z" class="cls-1"/><path d="M154.2 110.6c-9-13.3-24.3-22.1-41.5-22.1-25.7 0-46.9 19.4-49.8 44.3 27.9-23.3 68.5-26.3 91.3-22.3ZM311.6 212.5c-14.4 0-27.2-3.2-38.3-9.5-11.1-6.3-19.8-15.1-26.1-26.2-6.3-11.1-9.4-24-9.4-38.5s3.1-27.4 9.4-38.5c6.2-11.2 14.9-19.9 26-26.2 11.1-6.3 23.8-9.5 38.2-9.5s23.2 2.3 33.2 6.9c10 4.6 18.5 11.1 25.4 19.6 6.9 8.4 11.6 18.3 14.4 29.8H351c-2.7-7.9-7.5-14.1-14.5-18.6-6.9-4.6-15-6.8-24.1-6.8s-15.2 1.8-21.5 5.5c-6.3 3.7-11.2 8.8-14.8 15.3-3.5 6.5-5.3 14.1-5.3 22.6s1.8 16.1 5.3 22.6 8.4 11.6 14.7 15.3c6.2 3.7 13.4 5.5 21.4 5.5s17.6-2.4 24.7-7.2c7.1-4.8 12.1-11.3 15.1-19.5h33.4c-2.3 11.6-6.9 21.6-13.9 30.3-6.9 8.6-15.5 15.3-25.8 20.1s-21.6 7.1-34.1 7.1ZM480.5 67h-31.8L392 209.7h34.6l9.6-24.7h56.7l9.6 24.7h34.6L480.4 67Zm-35.9 92.5 20-52.2 20.2 52.2h-40.1ZM675.1 101c-6.3-10.7-15-19.1-26.3-25.1s-24.5-9-39.5-9h-56.5v142.7h56.5c15.1 0 28.2-3 39.5-9s20-14.3 26.3-25c6.2-10.7 9.4-23.3 9.4-37.4s-3.1-26.6-9.4-37.3Zm-29.3 59.1c-3.6 6.3-8.6 11.1-15 14.6s-13.8 5.2-22.2 5.2h-23.4V96.7h23c8.6 0 16.1 1.7 22.5 5.2 6.5 3.5 11.5 8.3 15.1 14.5 3.6 6.2 5.4 13.6 5.4 21.9s-1.8 15.6-5.4 21.8ZM700.1 209.6V67h93.8v27.3h-61.6v29.5h56v27.1h-56v31.2h63.8v27.5h-96zM811.7 209.6V67h27.5l50.8 73.9L940.6 67h27.3v142.6h-32.2v-85.8L901 174.4h-22.4l-34.7-50.8v86h-32.2zM1036.1 209.6v-49.9L983.5 67h36.9l17.7 33 14.3 25.9 14.1-25.9 17.5-33h36.9l-52.4 92.3v50.3h-32.4z" class="cls-1"/></svg>